<?xml version="1.0" encoding="UTF-8" standalone="no"?><!-- Generator: Gravit.io --><svg xmlns="http://www.w3.org/2000/svg" xmlns:xlink="http://www.w3.org/1999/xlink" style="isolation:isolate" viewBox="0 337.912 100 131.416" width="100pt" height="131.416pt"><defs><clipPath id="_clipPath_Teq1aEeGv7QLf4dAl7FPDs2ctvnTMe6X"><rect x="0" y="337.912" width="100" height="131.416"/></clipPath></defs><g clip-path="url(#_clipPath_Teq1aEeGv7QLf4dAl7FPDs2ctvnTMe6X)"><path d=" M 37.5 337.912 L 37.5 337.912 C 33.473 338.861 29.706 340.27 26.231 342.087 L 26.231 342.087 L 26.231 342.087 L 26.231 342.087 Q 26.231 372.636 26.231 372.678 Q 26.231 383.211 16.383 389.839 L 16.383 349.019 C 5.995 358.594 0 372.935 0 389.461 C 0 419.565 41.528 438.4 50 469.328 L 50 469.328 C 58.472 438.4 100 419.565 100 389.461 C 100 372.885 93.969 358.507 83.523 348.932 L 83.523 348.932 L 83.523 348.932 L 83.523 389.839 Q 73.674 383.211 73.674 372.678 Q 73.674 372.636 73.674 342.038 C 70.226 340.244 66.491 338.852 62.5 337.912 L 62.5 337.912 L 62.5 337.912 Q 62.5 402.603 62.5 409.938 C 62.5 419.755 56.773 423.919 50 424.387 C 43.227 423.919 37.5 419.755 37.5 409.938 Q 37.5 402.603 37.5 337.912 L 37.5 337.912 Z  M 41.477 411.437 C 41.477 406.733 45.296 402.914 50 402.914 C 54.704 402.914 58.523 406.733 58.523 411.437 C 58.523 416.14 54.704 419.959 50 419.959 C 45.296 419.959 41.477 416.14 41.477 411.437 L 41.477 411.437 Z  M 17.927 347.499 C 20.032 345.745 22.299 344.175 24.716 342.809 Q 24.716 373.109 24.716 373.15 Q 24.716 380.138 17.614 386.809 L 17.927 347.499 L 17.927 347.499 L 17.927 347.499 Z  M 82.073 347.499 C 79.968 345.745 77.701 344.175 75.284 342.809 Q 75.284 373.109 75.284 373.15 Q 75.284 380.138 82.386 386.809 L 82.073 347.499 L 82.073 347.499 L 82.073 347.499 Z " fill-rule="evenodd" fill="rgb(255,138,55)"/></g></svg>